<svg width="21" height="18" viewBox="0 0 21 18" fill="none" xmlns="http://www.w3.org/2000/svg">
<path d="M17.9282 9.8969C17.9692 9.62426 18 9.35163 18 9.06196C18 8.77228 17.9692 8.49965 17.9282 8.22702L20.0932 6.82125C20.2882 6.69345 20.3395 6.46342 20.2164 6.27598L18.1642 3.32813C18.0411 3.1407 17.764 3.07254 17.5383 3.1407L14.9833 3.99268C14.4498 3.65189 13.8752 3.37073 13.2492 3.15774L12.8593 0.899992C12.8285 0.695516 12.6131 0.54216 12.3565 0.54216H8.25219C7.99567 0.54216 7.7802 0.695516 7.74941 0.899992L7.3595 3.15774C6.73359 3.37073 6.15898 3.66041 5.62541 3.99268L3.07046 3.1407C2.83446 3.06402 2.56767 3.1407 2.44454 3.32813L0.392368 6.27598C0.258977 6.46342 0.320542 6.69345 0.515499 6.82125L2.68054 8.22702C2.6395 8.49965 2.60872 8.7808 2.60872 9.06196C2.60872 9.34311 2.6395 9.62426 2.68054 9.8969L0.515499 11.3027C0.320542 11.4305 0.269238 11.6605 0.392368 11.8479L2.44454 14.7958C2.56767 14.9832 2.84472 15.0514 3.07046 14.9832L5.62541 14.1312C6.15898 14.472 6.73359 14.7532 7.3595 14.9662L7.74941 17.2239C7.7802 17.4284 7.99567 17.5818 8.25219 17.5818H12.3565C12.6131 17.5818 12.8285 17.4284 12.8593 17.2239L13.2492 14.9662C13.8752 14.7532 14.4498 14.4635 14.9833 14.1312L17.5383 14.9832C17.7743 15.0599 18.0411 14.9832 18.1642 14.7958L20.2164 11.8479C20.3395 11.6605 20.2882 11.4305 20.0932 11.3027L17.9282 9.8969V9.8969ZM10.3044 12.0439C8.32402 12.0439 6.71306 10.7063 6.71306 9.06196C6.71306 7.41764 8.32402 6.08003 10.3044 6.08003C12.2847 6.08003 13.8957 7.41764 13.8957 9.06196C13.8957 10.7063 12.2847 12.0439 10.3044 12.0439Z" fill="black" fill-opacity="0.7"/>
</svg>
